# xmcd
# Track frame offsets:
# 150
# 16312
# 31250
# 50987
# 69950
# 84375
# 100587
# 115662
# 130437
# 147150
# 160950
# 179612
# 191550
# 207937
# 225737
# 243975
#
# Disc length: 3448 seconds
# Revision: 0
# Processed by: cddbd v1.4PL0 Copyright (c) Steve Scherf et al.
# Submitted via: VisiTrax 2.9.3.171 - For more info visit www.synapsa.com
#
DISCID=d90d7610
DTITLE=The Oak Ridge Boys - The very best of Alabama and The Oak Ridge Boys
DYEAR=1900
DGENRE=
TTITLE0=Alabama - feels so right
TTITLE1=Alabama - love in the first degree
TTITLE2=Alabama - roll on eighteen wheeler
TTITLE3=Alabama - mountain music
TTITLE4=Alabama - song of the south
TTITLE5=Alabama - when we make love
TTITLE6=Alabama - 40 hour week
TTITLE7=Alabama - born country
TTITLE8=The Oak Ridge Boys - Elvira
TTITLE9=The Oak Ridge Boys - love song
TTITLE10=The Oak Ridge Boys - beautiful you
TTITLE11=The Oak Ridge Boys - America made
TTITLE12=The Oak Ridge Boys - facy free
TTITLE13=The Oak Ridge Boys - everyday
TTITLE14=The Oak Ridge Boys - make my life with you
TTITLE15=The Oak Ridge Boys - Ozark mountain jubilee
EXTD=JB474CD
EXTT0=
EXTT1=
EXTT2=
EXTT3=
EXTT4=
EXTT5=
EXTT6=
EXTT7=
EXTT8=
EXTT9=
EXTT10=
EXTT11=
EXTT12=
EXTT13=
EXTT14=
EXTT15=
PLAYORDER=
